<?xml version="1.0" encoding="UTF-8"?>
<svg id="Capa_1" xmlns="http://www.w3.org/2000/svg" version="1.1" viewBox="0 0 160 160">
  <!-- Generator: Adobe Illustrator 30.0.0, SVG Export Plug-In . SVG Version: 2.1.1 Build 123)  -->
  <defs>
    <style>
      .st0 {
        fill: #1c6758;
      }
    </style>
  </defs>
  <path class="st0" d="M44.9,7c1.7.8,3.3,1.6,4.1,3.4.2.4.7,2.4.7,2.7v12.1h60.5v-12.1c0-.3.5-2.3.7-2.7.8-1.8,2.5-2.6,4.1-3.4h9.1c1,.6,2.2,1,3,2,.3.4,1.6,2.6,1.6,3v13.3h8.4c.9,0,3.6,1,4.6,1.4,6,2.5,9.9,8,11.2,14.3v96.4c-1.4,7.5-6.6,13.3-14,15.3-39.3.7-78.8.7-118.1,0-7.5-2-13.1-8.2-14-16V41.3c.3-7,8.8-16.1,15.8-16.1h8.4v-13.3c0-.4,1.2-2.6,1.6-3,.8-1,2-1.4,3-2h9.1,0ZM140.7,68H19.2v68c0,1.7,3.3,4.8,5.3,4.7l111.9-.2c1.6-.2,4.3-3.1,4.3-4.5v-68h0Z"/>
</svg>