<svg width="79" height="78" viewBox="0 0 79 78" fill="none" xmlns="http://www.w3.org/2000/svg">
<path d="M10.1268 22.5762C10.3588 21.9571 10.4428 21.2648 10.7884 20.6847C10.8427 20.5872 10.7588 20.4995 10.9859 20.5433L35.55 44.9086C37.9298 46.883 40.9565 46.883 43.3413 44.9086L67.3277 21.6695L68.3004 20.9967L68.7645 22.9711V53.9615C68.7201 54.6147 68.5473 55.2729 68.3053 55.8822C68.2461 56.0333 68.1029 56.5842 67.9054 56.5014L54.5643 43.3291C52.7917 42.0323 50.5649 44.0896 51.8783 45.9811L65.1552 59.1046C65.2688 59.3679 64.0739 59.6847 63.8566 59.7481C47.5826 59.9772 31.2 60.0211 14.9359 59.7237L13.6768 59.1582L27.0525 45.9128C28.277 44.1091 26.0897 42.0372 24.3171 43.3291L10.976 56.5014C10.7785 56.5794 10.6946 56.1796 10.6403 56.048C10.4872 55.6872 10.1663 54.8146 10.1218 54.4685V22.5762H10.1268Z" fill="#1C6758"/>
<path d="M65.5501 17.9399C65.5946 18.1007 65.5057 18.13 65.4415 18.2226C64.7009 19.2902 62.2173 21.4206 61.1459 22.4639C54.4013 29.0207 47.5036 35.4557 40.8182 42.0809C39.8899 42.7877 38.9913 42.7877 38.0631 42.0809L13.6768 17.8814C13.6768 17.6279 15.5728 17.1111 15.9036 17.1404H62.8641C63.822 17.1794 64.6959 17.5596 65.5501 17.9399Z" fill="#1C6758"/>
</svg>
