<svg width="61" height="58" viewBox="0 0 61 58" fill="none" xmlns="http://www.w3.org/2000/svg">
<path d="M60.105 19.7884C60.0103 18.4241 59.4485 17.2001 58.3059 16.4224C58.0976 16.2758 58.3312 15.9761 56.8604 15.7849H47.0318V3.26439C47.0318 1.89377 44.9487 -0.0314843 43.5473 0.00039072H3.60811C1.65755 0.166141 0.0983612 1.91927 0.00998618 3.87639V32.991C-0.154139 34.4318 1.73961 36.8734 3.12836 36.8734H6.60655V45.3203C6.60655 45.3203 6.92849 45.7601 6.97899 45.8048C7.4903 46.2446 8.29199 46.2383 8.80961 45.8239L16.1952 36.8734H20.8917V45.5689C20.8917 46.7546 22.9054 48.6926 24.1427 48.699H26.1627L42.0576 48.7373L49.9671 57.6495C50.5479 58.1021 51.5137 58.1085 51.9682 57.4646C52.0313 57.3818 52.2838 56.8335 52.2838 56.7953V48.7118H56.9803C58.3249 48.7118 60.206 46.353 60.0924 44.9505C59.6694 36.7331 60.6668 27.9356 60.105 19.7884ZM44.2606 33.2779L43.5789 34.0684L26.1627 34.1449L20.8223 34.164L15.2421 34.1895L14.4214 34.5911L9.29568 40.8195V35.3306C9.29568 35.2286 8.98636 34.6358 8.87274 34.5274C7.98267 33.6986 4.76961 34.4828 3.54499 34.1066C3.03999 33.9473 2.80011 33.3161 2.73067 32.8316L2.6928 4.37364C2.75592 3.62777 2.90111 3.01577 3.67124 2.76714L42.9413 2.70339C43.5789 2.70339 44.1217 3.06039 44.2922 3.69152L44.2606 33.2779Z" fill="#1C6758"/>
<path d="M56.8477 48.7181H54.9351V15.7849L56.8477 15.8231C58.7415 15.8231 60.2754 17.3723 60.2754 19.2848V45.2501C60.2754 47.1626 58.7415 48.7118 56.8477 48.7118V48.7181Z" fill="#1C6758"/>
<path d="M26.1627 34.1449L26.2384 48.7054L24.25 48.7181C22.3562 48.7181 20.8223 47.169 20.8223 45.2565L20.8223 34.164L26.1627 34.1449Z" fill="#1C6758"/>
<path d="M21.1442 22.6189C21.1442 21.618 21.201 20.7255 21.3147 19.9541C21.4283 19.1828 21.624 18.4879 21.9081 17.8759C22.1921 17.2575 22.5772 16.6901 23.0759 16.161C23.4925 15.7148 23.8586 15.2876 24.1806 14.8796C24.5025 14.4716 24.736 14.0509 24.8939 13.6301C25.0517 13.2094 25.1337 12.7568 25.1337 12.2786C25.1337 11.6858 25.0832 11.2013 24.9759 10.8251C24.8686 10.449 24.7108 10.1685 24.5025 9.97726C24.2942 9.78601 24.0354 9.69676 23.7324 9.69676C23.5051 9.69676 23.2842 9.79239 23.0695 9.99002C22.8549 10.1813 22.6719 10.4809 22.5204 10.8889C22.3689 11.2969 22.2868 11.826 22.2742 12.489H16.6624C16.6939 10.7869 17.0285 9.40351 17.6534 8.33889C18.2784 7.27427 19.1179 6.49014 20.1721 5.99289C21.2263 5.49564 22.4067 5.24701 23.7324 5.24701C25.1779 5.24701 26.4215 5.50201 27.4694 6.01839C28.5172 6.53476 29.3189 7.29339 29.8744 8.30064C30.4362 9.30789 30.714 10.551 30.714 12.0236C30.714 13.0054 30.5562 13.8596 30.2342 14.58C29.9123 15.3068 29.4894 15.9761 28.9654 16.6009C28.4415 17.2256 27.8671 17.8886 27.2421 18.5963C26.7245 19.1764 26.371 19.7693 26.1816 20.3685C25.9922 20.9678 25.8912 21.72 25.866 22.6189H21.1442ZM20.5193 27.8273C20.5193 27.0049 20.797 26.3164 21.3589 25.7618C21.9207 25.2071 22.6466 24.933 23.5367 24.933C24.4267 24.933 25.1527 25.2071 25.7145 25.7618C26.2763 26.3164 26.5541 27.0049 26.5541 27.8273C26.5541 28.6496 26.2763 29.3381 25.7145 29.8928C25.1527 30.4474 24.4267 30.7215 23.5367 30.7215C22.6466 30.7215 21.9207 30.4474 21.3589 29.8928C20.797 29.3381 20.5193 28.6496 20.5193 27.8273Z" fill="#1C6758"/>
</svg>
