<?xml version="1.0" encoding="UTF-8"?>
<svg id="Capa_1" data-name="Capa 1" xmlns="http://www.w3.org/2000/svg" viewBox="0 0 35.72 35.6">
  <defs>
    <style>
      .cls-1 {
        fill: #eee;
      }
    </style>
  </defs>
  <path class="cls-1" d="M8.4,21.06h5.77c.34.23.03.92-.1,1.28-2,5.51-9.85,6.33-12.96,1.33-1.67-2.68-.95-5.78-.98-8.79.2-.44,1.08-.52,1.52-.56,2.09-.16,4.44.09,6.55.06l.2.16v6.54Z"/>
  <path class="cls-1" d="M14.52,8.54v5.78c-4.97-.6-7.42-6.41-4.94-10.6C11.75.07,16.24-.29,20.16.15c.49.06,1.18.32,1.18.9v7.29l-.21.21h-6.61Z"/>
  <path class="cls-1" d="M27.32,21.2v-6.61h-5.77c-.44,0,.16-1.54.28-1.79,2.12-4.61,8.54-5.53,11.97-1.79,2.58,2.81,1.84,6.26,1.8,9.77-.19.43-.96.52-1.39.56-2.16.18-4.72-.05-6.89-.14h0Z"/>
  <path class="cls-1" d="M14.39,27.25h6.61l.21-.21v-5.71c1.81.18,3.65,1.41,4.65,2.9,3.19,4.76.02,10.88-5.69,11.28-1.21.08-3.58.13-4.74,0-.28-.03-1.04-.39-1.04-.62v-7.64h0Z"/>
</svg>