<?xml version="1.0" encoding="UTF-8"?>
<svg id="Capa_1" xmlns="http://www.w3.org/2000/svg" version="1.1" viewBox="0 0 160 129.4">
  <!-- Generator: Adobe Illustrator 30.0.0, SVG Export Plug-In . SVG Version: 2.1.1 Build 123)  -->
  <defs>
    <style>
      .st0 {
        fill: #1c6758;
      }
    </style>
  </defs>
  <path class="st0" d="M156.3,36.1L81.4,4.3c-2.4-.5-4.9,1-7.1,1.9C50.9,15.2,28.1,26.2,4.7,35.4c-4.1,2-4,7,0,9l75.1,31.5,3.3-.9,57.7-24.3v36.7c-5,1.1-6.8,8.2-5.9,12.7.2.8.6,1.8.9,2.5.4.8.9,1.4.9,2.4,0,.9-.3,1.7-.7,2.6-.7,1.9-1.2,3.8-1.7,5.8-.7,2.4-2,4.8-2.5,7.2-.3,1.5.2,3.7,1.7,4.3,2.5,1,4.9-1.9,7.6-2.4,2.3-.4,4.6-.2,6.8.6,1.8.7,5.8,4,6.9.5.4-1.1,0-2.3-.3-3.4l-3.5-11.2c-.5-1.8-1.1-3.5-1.7-5.2-.5-1.4.4-2.9,1-4.3.7-1.5,1.1-2.6.8-4.2-.3-1.5-.7-3-1.4-4.3-.8-1.4-2.1-2.1-2.9-3.4l.2-39.7c5-2.2,16.1-4.6,9.3-11.8h0Z"/>
  <path class="st0" d="M32.4,61.9l43.3,18.4c2,.9,3.9,1,6.1.8l45.6-19,.7.4v26.6c0,.7-.6,3.1-1,3.9-1.7,4.1-10.5,8.4-14.6,10.2-20.5,9.3-43.6,9.5-64.2.3-3.5-1.6-16-7.7-16-12v-29.5h0Z"/>
  <ellipse class="st0" cx="143.4" cy="96.1" rx="7.9" ry="10.1"/>
</svg>