<?xml version="1.0" encoding="UTF-8"?>
<svg id="Capa_1" data-name="Capa 1" xmlns="http://www.w3.org/2000/svg" viewBox="0 0 160 160">
  <path d="M119.62,75.9l-38.74-16.45c-1.23-.24-2.53.52-3.66.96-12.15,4.7-23.95,10.39-36.08,15.13-2.1,1.02-2.09,3.64,0,4.66l38.9,16.3,1.69-.45,29.86-12.57v19c-2.59.59-3.52,4.27-3.06,6.59.08.42.29.94.48,1.32.21.44.47.7.45,1.22-.01.46-.18.9-.34,1.33-.36.97-.6,1.99-.9,2.98-.37,1.24-1.01,2.46-1.28,3.73-.17.77.11,1.92.89,2.23,1.28.52,2.54-.97,3.93-1.23,1.17-.22,2.39-.1,3.5.32.91.35,2.98,2.07,3.58.26.19-.57,0-1.18-.17-1.75l-1.81-5.82c-.28-.91-.59-1.82-.89-2.71-.26-.75.2-1.52.53-2.21.36-.76.56-1.35.39-2.17-.16-.76-.35-1.54-.73-2.23-.41-.74-1.08-1.09-1.48-1.78l.11-20.55c2.61-1.12,8.31-2.38,4.83-6.1Z"/>
  <path d="M55.5,89.26l22.44,9.5c1.02.47,2.04.54,3.15.44l23.62-9.86.37.19v13.75c0,.38-.33,1.61-.51,2.02-.9,2.1-5.46,4.33-7.57,5.28-10.61,4.79-22.59,4.91-33.24.18-1.83-.81-8.26-3.99-8.26-6.22v-15.29Z"/>
  <ellipse cx="112.96" cy="106.99" rx="4.07" ry="5.24"/>
</svg>