<?xml version="1.0" encoding="UTF-8"?>
<svg id="Capa_1" data-name="Capa 1" xmlns="http://www.w3.org/2000/svg" viewBox="0 0 160 160">
  <defs>
    <style>
      .cls-1 {
        fill: #fff;
      }
    </style>
  </defs>
  <path d="M80,43.87c-19.95,0-36.13,16.17-36.13,36.13s16.17,36.13,36.13,36.13,36.13-16.17,36.13-36.13-16.17-36.13-36.13-36.13ZM70.15,63.05c2.58-4.4,7.93-4.83,12.59-4.3.58.07,1.41.38,1.41,1.08v8.78l-.25.25h-7.87v6.96c-5.92-.72-8.84-7.72-5.88-12.76ZM75.49,85.46c-2.38,6.64-11.73,7.62-15.44,1.6-1.99-3.23-1.13-6.95-1.17-10.59.23-.53,1.28-.63,1.81-.67,2.49-.19,5.29.11,7.8.07l.24.19v7.87h6.87c.41.28.03,1.11-.12,1.54ZM82.75,101.33c-1.43.1-4.26.16-5.65,0-.34-.04-1.24-.47-1.24-.75v-9.19h0s7.87,0,7.87,0l.25-.25v-6.87c2.16.22,4.35,1.7,5.54,3.49,3.8,5.73.03,13.1-6.77,13.58ZM101.12,83.59c-.23.52-1.14.63-1.65.67-2.57.22-5.61-.06-8.2-.17h0s0,0,0,0c0,0,0,0,0,0v-7.95h-6.87c-.53,0,.19-1.85.33-2.15,2.53-5.55,10.17-6.66,14.25-2.16,3.07,3.38,2.19,7.54,2.15,11.76Z"/>
  <polygon class="cls-1" points="91.27 84.09 91.27 84.09 91.26 84.08 91.27 84.09"/>
</svg>