<?xml version="1.0" encoding="UTF-8"?>
<svg id="Capa_1" data-name="Capa 1" xmlns="http://www.w3.org/2000/svg" viewBox="0 0 160 160">
  <defs>
    <style>
      .cls-1 {
        fill: #fff;
      }
    </style>
  </defs>
  <path d="M75.88,59.31c-.36-.44-.59-.98-.65-1.55l-1.08-10.15c-.19-1.83-2.02-3.03-3.78-2.48l-5.97,1.88c-.35.05-1.21.76-1.21,1.06v19.97c0,.55-.45,2.08-.68,2.64-.76,1.84-2.42,3.51-4.34,4.27-1.09.43-1.78,1.51-1.78,2.68v21.67c0,1.61,1.31,2.92,2.92,2.92h22.6c1.61,0,2.92-1.31,2.92-2.92v-28.1c0-.68-.24-1.33-.67-1.86l-8.28-10.05Z"/>
  <path d="M98.81,104.49h-40.39c-1.13,0-2.04.88-2.04,1.97v6.17c0,.18,1.28,2.15,1.54,2.41.67.62,1.97,1.17,2.94,1.33.12.02.23.02.35.02l29.11.02c.53,0,1.04-.2,1.42-.56l8.48-7.96c.36-.34.58-.79.61-1.27h0c.09-1.16-.85-2.13-2.04-2.13Z"/>
  <path d="M73.25,104.49h40.39c1.13,0,2.04.88,2.04,1.97v6.17c0,.18-1.28,2.15-1.54,2.41-.67.62-1.97,1.17-2.94,1.33-.12.02-.23.02-.35.02l-29.11.02c-.53,0-1.04-.2-1.42-.56l-8.48-7.96c-.36-.34-.58-.79-.61-1.27h0c-.09-1.16.85-2.13,2.04-2.13Z"/>
  <path d="M113.8,74.9c-2.92-1.16-4.7-4-4.93-7.3-.42-6.08.57-12.94.01-18.92-.1-1.07-.39-1.3-1.33-1.7-1.44-.61-7.58-2.74-8.9-2.9-.12-.01-.24-.02-.37-.01l-1.45,13.7c-.06.57-.29,1.11-.65,1.55l-8.28,10.04c-.43.52-.67,1.18-.67,1.86v28.1c0,1.61,1.31,2.92,2.92,2.92h22.6c1.61,0,2.92-1.31,2.92-2.92v-21.69c0-1.21-.76-2.27-1.89-2.72ZM97.61,71.17c.74-1.26,2.27-1.38,3.6-1.23.17.02.4.11.4.31v2.51l-.07.07h-2.25v1.99c-1.69-.21-2.53-2.21-1.68-3.65ZM99.14,77.57c-.68,1.9-3.35,2.18-4.41.46-.57-.92-.32-1.99-.33-3.03.07-.15.37-.18.52-.19.71-.06,1.51.03,2.23.02l.07.05v2.25h1.96c.12.08,0,.32-.03.44ZM101.22,82.11c-.41.03-1.22.05-1.61,0-.1-.01-.35-.13-.35-.21v-2.63h0s2.25,0,2.25,0l.07-.07v-1.96c.62.06,1.24.48,1.58,1,1.08,1.64,0,3.74-1.94,3.88ZM106.46,77.04c-.07.15-.33.18-.47.19-.74.06-1.6-.02-2.34-.05h0s0,0,0,0c0,0,0,0,0,0v-2.27h-1.96c-.15,0,.06-.53.09-.62.72-1.59,2.91-1.9,4.07-.62.88.97.63,2.15.61,3.36Z"/>
  <polygon class="cls-1" points="103.65 77.18 103.65 77.18 103.65 77.18 103.65 77.18"/>
</svg>