<?xml version="1.0" encoding="UTF-8"?>
<svg id="Capa_1" xmlns="http://www.w3.org/2000/svg" version="1.1" viewBox="0 0 127.9 160">
  <!-- Generator: Adobe Illustrator 30.0.0, SVG Export Plug-In . SVG Version: 2.1.1 Build 123)  -->
  <defs>
    <style>
      .st0 {
        fill: #1c6758;
      }

      .st1 {
        fill: #fff;
      }
    </style>
  </defs>
  <path class="st0" d="M114.1,32.7H24.6c-8.6-.5-9.4-12-1-13.6h96.4c8.6-1.8,7.4-13.4-1.2-13.7H23.4C13.3,6.1,5.2,13.9,4.2,24c.3,34-.5,68.1.4,102,2.5,14.7,14.4,26.3,29.2,28.1,23.5-.5,48.6,1.8,72,.3,10.9-.7,18.9-8,20.1-18.9V45.2c-.5-6.5-5.4-11.7-11.9-12.5h0ZM73.9,73.3l-.4.4h-13.1v11.6c-9.9-1.2-14.8-12.9-9.8-21.3,4.3-7.3,13.2-8.1,21-7.2,1,.1,2.3.6,2.3,1.8v14.7ZM82.9,105.3c6.3,9.6,0,21.9-11.3,22.7-2.4.2-7.1.3-9.4,0-.6,0-2.1-.8-2.1-1.3v-15.4h13.1l.4-.4v-11.5c3.6.4,7.3,2.8,9.2,5.8ZM47.8,85.5l.4.3v13.1h11.5c.7.5,0,1.9-.2,2.6-4,11.1-19.6,12.7-25.8,2.7-3.3-5.4-1.9-11.6-1.9-17.7.4-.9,2.1-1,3-1.1,4.1-.3,8.8.2,13,.1h0ZM102.2,98.4c-.4.9-1.9,1-2.8,1.1-4.3.4-9.4-.1-13.7-.3h0v-13.3h-11.5c-.9,0,.3-3.1.6-3.6,4.2-9.3,17-11.1,23.8-3.6,5.1,5.6,3.7,12.6,3.6,19.6h0Z"/>
  <polygon class="st1" points="85.8 99.2 85.8 99.2 85.8 99.2 85.8 99.2"/>
  <path class="st1" d="M74.9,82.3c-.2.5-1.4,3.6-.6,3.6h11.5v13.3c4.3.2,9.4.7,13.7.3.9,0,2.4-.3,2.8-1.1,0-7,1.5-14-3.6-19.6-6.8-7.5-19.6-5.7-23.8,3.6h0Z"/>
  <path class="st1" d="M71.5,56.9c-7.8-.9-16.7-.1-21,7.2-4.9,8.4,0,20.1,9.8,21.3v-11.6h13.1l.4-.4v-14.7c0-1.2-1.4-1.7-2.3-1.8Z"/>
  <path class="st1" d="M31.7,86.5c0,6.1-1.4,12.3,1.9,17.7,6.2,10.1,21.8,8.4,25.8-2.7.3-.7.9-2.1.2-2.6h-11.5v-13.1l-.4-.3c-4.2,0-8.9-.4-13-.1-.9,0-2.6.2-3,1.1h0Z"/>
  <path class="st1" d="M73.6,99.5v11.5l-.4.4h-13.1v15.4c0,.5,1.5,1.2,2.1,1.3,2.3.3,7,.2,9.4,0,11.3-.8,17.6-13.1,11.3-22.7-2-3-5.6-5.5-9.2-5.8Z"/>
</svg>