<?xml version="1.0" encoding="UTF-8"?>
<svg id="Capa_1" xmlns="http://www.w3.org/2000/svg" version="1.1" viewBox="0 0 160 160">
  <!-- Generator: Adobe Illustrator 30.0.0, SVG Export Plug-In . SVG Version: 2.1.1 Build 123)  -->
  <defs>
    <style>
      .st0 {
        fill: #1c6758;
      }

      .st1 {
        fill: #1c6758;
      }
    </style>
  </defs>
  <g>
    <path class="st1" d="M40.4,108.4c4.3,0,7.9,3.5,7.9,7.9s-3.5,7.9-7.9,7.9-7.9-3.5-7.9-7.9,3.5-7.9,7.9-7.9Z"/>
    <path class="st1" d="M155.5,113.4c0,25.5-20.6,45.7-44.8,45.7h-60.6c-24.2,0-44.7-20.2-44.8-45.7,0-12.7,4.9-24.2,12.7-32.6,5.2-5.5,12.2-8.1,19.1-7.8-3.5,10.2-3.6,24.3-3.6,27.6h0c-6.1,2.6-10.3,8.6-10.3,15.6s7.6,17,17,17,17-7.6,17-17-4.9-13.9-11.6-16.1h0c0-7.2,1-17.9,3.1-23.7,2,1.2,3.9,2.6,5.7,4.4,6.7,6.8,15.8,7.9,25.9,7.9s19.2-1.1,25.9-7.9c1.8-1.8,3.8-3.3,5.9-4.5,2,5.5,3,15.3,3.2,22.4-8.4,2.7-14.4,10.5-14.4,19.7v2.4c-1.2,1.1-1.9,2.7-1.9,4.5,0,3.4,2.7,6.1,6.1,6.1s6.1-2.8,6.1-6.1-.7-3.3-1.9-4.5v-2.4c0-6.8,5.6-12.4,12.4-12.4s12.3,5.6,12.3,12.4v2.4c-1.2,1.1-1.9,2.7-1.9,4.5,0,3.4,2.7,6.1,6.1,6.1s6.1-2.8,6.1-6.1-.7-3.4-2-4.5v-2.4c0-9.4-6.3-17.3-14.8-19.9,0-5.2-.6-16.8-3.6-25.6,6.8-.2,13.7,2.3,18.9,7.8,7.9,8.3,12.8,19.8,12.7,32.6h0Z"/>
  </g>
  <path class="st0" d="M80.4.7c-21.8,0-39.5,17.7-39.5,39.5s1.1,10.5,3,15.1c5.9,14.3,20,24.4,36.5,24.4s30.5-10.1,36.5-24.4c1.9-4.7,3-9.8,3-15.1C119.9,18.4,102.2.7,80.4.7Z"/>
</svg>