<?xml version="1.0" encoding="UTF-8"?>
<svg id="Capa_1" xmlns="http://www.w3.org/2000/svg" version="1.1" viewBox="0 0 140.3 160">
  <!-- Generator: Adobe Illustrator 30.0.0, SVG Export Plug-In . SVG Version: 2.1.1 Build 123)  -->
  <defs>
    <style>
      .st0 {
        fill: #1c6758;
      }
    </style>
  </defs>
  <path class="st0" d="M48.1,34.4c-.8-1-1.3-2.1-1.4-3.4l-2.4-22.1c-.4-4-4.4-6.6-8.2-5.4l-13,4.1c-.8.1-2.6,1.7-2.6,2.3v43.5c0,1.2-1,4.5-1.5,5.7-1.7,4-5.3,7.6-9.4,9.3-2.4.9-3.9,3.3-3.9,5.8v47.2c0,3.5,2.9,6.4,6.4,6.4h49.2c3.5,0,6.4-2.9,6.4-6.4v-61.2c0-1.5-.5-2.9-1.5-4l-18-21.9h0Z"/>
  <path class="st0" d="M98,132.8H10c-2.5,0-4.4,1.9-4.4,4.3v13.4c0,.4,2.8,4.7,3.4,5.2,1.5,1.3,4.3,2.5,6.4,2.9.3,0,.5,0,.8,0h63.4c1.2,0,2.3-.4,3.1-1.2l18.5-17.3c.8-.7,1.3-1.7,1.3-2.8h0c.2-2.5-1.9-4.6-4.4-4.6h0Z"/>
  <path class="st0" d="M42.3,132.8h87.9c2.5,0,4.4,1.9,4.4,4.3v13.4c0,.4-2.8,4.7-3.4,5.2-1.5,1.3-4.3,2.5-6.4,2.9-.3,0-.5,0-.8,0h-63.4c-1.2,0-2.3-.4-3.1-1.2l-18.5-17.3c-.8-.7-1.3-1.7-1.3-2.8h0c-.2-2.5,1.9-4.6,4.4-4.6h0Z"/>
  <path class="st0" d="M130.6,68.4c-6.4-2.5-10.2-8.7-10.7-15.9-.9-13.2,1.2-28.2,0-41.2-.2-2.3-.8-2.8-2.9-3.7-3.1-1.3-16.5-6-19.4-6.3-.3,0-.5,0-.8,0l-3.2,29.8c-.1,1.2-.6,2.4-1.4,3.4l-18,21.9c-.9,1.1-1.5,2.6-1.5,4v61.2c0,3.5,2.9,6.4,6.4,6.4h49.2c3.5,0,6.4-2.9,6.4-6.4v-47.2c0-2.6-1.7-4.9-4.1-5.9h0ZM95.4,60.3c1.6-2.7,4.9-3,7.8-2.7.4,0,.9.2.9.7v5.5l-.2.2h-4.9v4.3c-3.7-.5-5.5-4.8-3.7-7.9ZM98.7,74.2c-1.5,4.1-7.3,4.7-9.6,1-1.2-2-.7-4.3-.7-6.6.2-.3.8-.4,1.1-.4,1.5-.1,3.3,0,4.9,0h.2v5h4.3c.3.2,0,.7,0,1h0ZM103.2,84.1c-.9,0-2.7.1-3.5,0-.2,0-.8-.3-.8-.5v-5.7h4.9l.2-.2v-4.3c1.3.1,2.7,1,3.4,2.2,2.4,3.6,0,8.1-4.2,8.4h0ZM114.6,73c-.2.3-.7.4-1,.4-1.6.1-3.5,0-5.1-.1h0v-4.9h-4.3c-.3,0,.1-1.2.2-1.3,1.6-3.5,6.3-4.1,8.9-1.3,1.9,2.1,1.4,4.7,1.3,7.3h0Z"/>
  <polygon class="st0" points="108.5 73.3 108.5 73.3 108.5 73.3 108.5 73.3"/>
</svg>