<svg width="237" height="237" viewBox="0 0 237 237" fill="none" xmlns="http://www.w3.org/2000/svg">
<path d="M93.4727 126.987H108.632C109.535 127.608 108.706 129.442 108.366 130.374C103.116 145.016 82.4838 147.175 74.3197 133.894C69.9271 126.765 71.8202 118.557 71.7462 110.54C72.2639 109.372 74.5711 109.15 75.7395 109.061C81.2266 108.633 87.4088 109.298 92.9403 109.209L93.4727 109.623V126.987Z" fill="#1C6758"/>
<path d="M109.549 93.739V109.091C96.4899 107.509 90.0563 92.0677 96.5787 80.9457C102.273 71.2434 114.06 70.2969 124.354 71.4505C125.641 71.5984 127.46 72.2935 127.46 73.8317V93.1918L126.913 93.739H109.549Z" fill="#1C6758"/>
<path d="M143.167 127.357V109.816H128.007C126.839 109.816 128.436 105.734 128.732 105.068C134.308 92.822 151.154 90.3817 160.161 100.306C166.935 107.76 164.997 116.93 164.894 126.247C164.391 127.386 162.379 127.638 161.255 127.726C155.576 128.215 148.861 127.593 143.152 127.342L143.167 127.357Z" fill="#1C6758"/>
<path d="M109.195 143.433H126.558L127.105 142.886V127.726C131.868 128.215 136.689 131.468 139.322 135.432C147.693 148.063 139.381 164.332 124.384 165.382C121.219 165.604 114.977 165.737 111.931 165.382C111.191 165.293 109.195 164.346 109.195 163.725V143.448V143.433Z" fill="#1C6758"/>
</svg>
