<svg width="29" height="31" viewBox="0 0 29 31" fill="none" xmlns="http://www.w3.org/2000/svg">
<path d="M25.375 2.51334L22.9583 5.02667M22.9583 5.02667L26.5833 8.79667L22.3541 13.195L18.7291 9.425M13.7629 14.5899L18.7291 9.425L22.9583 5.02667M13.7629 14.5899C14.3868 15.2301 14.8828 15.9924 15.2223 16.8328C15.5617 17.6732 15.738 18.5751 15.741 19.4867C15.7439 20.3982 15.5734 21.3014 15.2394 22.1441C14.9053 22.9868 14.4142 23.7525 13.7945 24.3971C13.1747 25.0417 12.4385 25.5524 11.6281 25.8998C10.8178 26.2472 9.94938 26.4245 9.0729 26.4215C8.19641 26.4184 7.32916 26.2351 6.52109 25.882C5.71301 25.5289 4.98007 25.0131 4.36447 24.3643C3.15387 23.0607 2.48401 21.3148 2.49915 19.5026C2.51429 17.6904 3.21323 15.9568 4.44542 14.6754C5.67761 13.3939 7.34447 12.667 9.08699 12.6512C10.8295 12.6355 12.5083 13.3321 13.7617 14.5912L13.7629 14.5899Z" stroke="#1E1E1E" stroke-width="1.6" stroke-linecap="round" stroke-linejoin="round"/>
</svg>
