<?xml version="1.0" encoding="UTF-8"?>
<svg id="Capa_1" data-name="Capa 1" xmlns="http://www.w3.org/2000/svg" viewBox="0 0 160 160">
  <defs>
    <style>
      .cls-1 {
        fill: #616160;
      }

      .cls-2 {
        fill: #1c6758;
      }
    </style>
  </defs>
  <polygon class="cls-1" points="112.24 73.64 112.24 78.78 101.3 78.78 101.3 83.23 110.75 83.23 110.75 87.82 101.5 87.82 101.3 88.03 101.3 92.62 101.5 92.82 112.65 92.82 112.65 97.61 112.44 97.82 95.83 97.82 95.63 97.61 95.63 73.85 95.83 73.64 112.24 73.64"/>
  <path class="cls-1" d="M91.7,76.09c.07.22,0,.42-.09.62-.35.83-1.16,2.29-1.62,3.1-.1.18-.54.96-.65.98-2.18-1.28-4.65-2.46-7.26-2.14-.93.11-1.93.63-1.98,1.67-.08,1.5,1.32,1.86,2.47,2.27,3.85,1.36,9.49,1.85,9.96,7.06.91,10.13-11.86,9.4-18.1,6.08-.34-.18-1.26-.61-1.16-1.02l2.33-4.6c1.26.56,2.4,1.35,3.7,1.83,1.64.61,5.55,1.61,6.82.07,1.41-1.71-1.29-2.74-2.51-3.17-3.28-1.17-8.39-1.78-9.25-5.87-.91-4.32,1.46-7.83,5.58-9.02s8.13.13,11.76,2.14Z"/>
  <path class="cls-1" d="M135.99,92.16c-.36,2.04-2.76,3.83-4.57,4.64-11.73,5.26-22.12-8.14-15.18-18.29,4.5-6.57,15.57-6.98,19.48.31l-4.24,3.03c-.88-1.34-1.75-2.48-3.37-2.95-6.44-1.87-10.04,5.08-7.53,10.36,2.21,4.65,8.54,4.9,10.91.32l4.5,2.58Z"/>
  <path class="cls-2" d="M41.21,88.9h5.6c.34.23.03.91-.1,1.25-1.94,5.41-9.57,6.21-12.59,1.3-1.62-2.64-.93-5.67-.95-8.63.19-.43,1.04-.51,1.48-.55,2.03-.16,4.31.09,6.36.06l.2.15v6.41Z"/>
  <path class="cls-2" d="M47.15,76.62v5.67c-4.83-.58-7.21-6.29-4.8-10.4,2.1-3.58,6.46-3.94,10.27-3.51.48.05,1.15.31,1.15.88v7.16l-.2.2h-6.41Z"/>
  <path class="cls-2" d="M59.57,89.04v-6.48h-5.6c-.43,0,.16-1.51.27-1.76,2.06-4.53,8.28-5.43,11.62-1.76,2.5,2.76,1.79,6.15,1.75,9.59-.19.42-.93.51-1.34.55-2.1.18-4.58-.05-6.69-.14Z"/>
  <path class="cls-2" d="M47.02,94.98h6.41l.2-.2v-5.6c1.76.18,3.54,1.38,4.51,2.85,3.1,4.67.02,10.68-5.52,11.07-1.17.08-3.48.13-4.6,0-.27-.03-1.01-.38-1.01-.61v-7.49Z"/>
  <g>
    <path class="cls-1" d="M74.45,103.7c-.21,0-.41-.03-.6-.09-.19-.06-.34-.14-.46-.23l.17-.39c.11.08.24.15.4.21.16.06.32.08.49.08.14,0,.25-.02.34-.05.09-.03.15-.07.19-.12.04-.05.06-.11.06-.18,0-.08-.03-.15-.09-.2-.06-.05-.14-.09-.23-.12-.09-.03-.2-.06-.31-.08-.11-.02-.23-.05-.34-.09-.11-.04-.22-.08-.31-.14-.09-.06-.17-.13-.23-.22s-.09-.21-.09-.35.04-.28.12-.4.2-.22.36-.29.36-.11.61-.11c.16,0,.32.02.48.06.16.04.3.1.42.18l-.16.39c-.12-.07-.24-.12-.37-.16-.13-.03-.25-.05-.37-.05-.14,0-.25.02-.33.05-.09.03-.15.08-.19.13-.04.06-.06.12-.06.18,0,.08.03.15.09.2.06.05.13.09.23.12s.2.06.31.08c.12.03.23.06.34.09s.22.08.31.13c.09.06.17.13.23.22.06.09.09.21.09.35s-.04.28-.12.4c-.08.12-.2.22-.36.29-.16.07-.37.11-.61.11Z"/>
    <path class="cls-1" d="M77.3,103.7c-.21,0-.4-.03-.58-.1-.18-.07-.33-.17-.46-.29s-.23-.27-.3-.44c-.07-.17-.11-.35-.11-.55s.04-.38.11-.55c.07-.17.17-.31.3-.44s.28-.22.46-.29c.18-.07.37-.1.58-.1s.4.03.58.1c.18.07.33.16.46.29.13.12.23.27.3.44.07.17.11.35.11.55s-.04.38-.11.55c-.07.17-.17.31-.3.44-.13.13-.28.22-.46.29-.18.07-.37.1-.58.1ZM77.3,103.26c.14,0,.26-.02.37-.07.11-.05.21-.11.3-.2.08-.08.15-.18.2-.3.05-.12.07-.24.07-.38s-.02-.27-.07-.38c-.05-.12-.11-.22-.2-.3s-.19-.15-.3-.2c-.11-.05-.24-.07-.37-.07s-.26.02-.38.07c-.12.05-.22.11-.3.2-.08.09-.15.19-.2.3-.05.11-.07.24-.07.38s.02.26.07.38c.05.12.12.22.2.3.08.09.19.15.3.2.12.05.24.07.38.07Z"/>
    <path class="cls-1" d="M80.52,103.7c-.21,0-.4-.03-.57-.1-.17-.07-.33-.16-.46-.29-.13-.13-.23-.27-.3-.44-.07-.17-.11-.35-.11-.55s.04-.39.11-.55c.07-.17.17-.31.3-.44s.28-.22.46-.29c.17-.07.37-.1.57-.1.22,0,.42.04.6.11.18.08.34.19.46.34l-.32.3c-.1-.11-.21-.18-.33-.24s-.25-.08-.39-.08-.27.02-.39.07c-.12.05-.22.11-.3.2s-.15.18-.2.3-.07.24-.07.38.02.27.07.38.12.22.2.3.19.15.3.2c.12.05.25.07.39.07s.27-.03.39-.08.23-.13.33-.24l.32.3c-.13.15-.28.26-.46.34-.18.08-.38.12-.61.12Z"/>
    <path class="cls-1" d="M83.16,103.7c-.21,0-.4-.03-.58-.1-.18-.07-.33-.17-.46-.29s-.23-.27-.3-.44-.11-.35-.11-.55.04-.38.11-.55.17-.31.3-.44.28-.22.46-.29c.18-.07.37-.1.58-.1s.4.03.58.1c.18.07.33.16.46.29.13.12.23.27.3.44.07.17.11.35.11.55s-.04.38-.11.55c-.07.17-.17.31-.3.44-.13.13-.28.22-.46.29-.18.07-.37.1-.58.1ZM83.16,103.26c.14,0,.26-.02.37-.07.11-.05.21-.11.3-.2.08-.08.15-.18.2-.3s.07-.24.07-.38-.02-.27-.07-.38-.11-.22-.2-.3c-.09-.08-.19-.15-.3-.2-.11-.05-.24-.07-.37-.07s-.26.02-.38.07c-.12.05-.22.11-.3.2-.08.09-.15.19-.2.3-.05.11-.07.24-.07.38s.02.26.07.38c.05.12.12.22.2.3.08.09.19.15.3.2.12.05.24.07.38.07Z"/>
    <path class="cls-1" d="M85.14,103.66v-2.69h1.1c.36,0,.64.09.84.26.2.17.31.4.31.7,0,.2-.05.37-.14.51-.09.14-.22.25-.39.33-.17.08-.37.12-.61.12h-.83l.22-.22v1.01h-.5ZM85.64,102.71l-.22-.24h.8c.22,0,.39-.05.5-.14.11-.09.17-.23.17-.4s-.06-.3-.17-.39c-.11-.09-.28-.14-.5-.14h-.8l.22-.25v1.56ZM86.9,103.66l-.68-.98h.53l.68.98h-.54Z"/>
    <path class="cls-1" d="M87.95,103.66v-2.69h1.1c.36,0,.64.09.84.26.2.17.31.4.31.7,0,.2-.05.37-.14.51-.09.14-.22.25-.39.33-.17.08-.37.12-.61.12h-.83l.22-.22v1.01h-.5ZM88.45,102.71l-.22-.24h.8c.22,0,.39-.05.5-.14.11-.09.17-.23.17-.4s-.06-.3-.17-.39c-.11-.09-.28-.14-.5-.14h-.8l.22-.25v1.56ZM89.71,103.66l-.68-.98h.53l.68.98h-.54Z"/>
    <path class="cls-1" d="M90.76,103.66v-2.69h.5v2.69h-.5Z"/>
    <path class="cls-1" d="M92.82,103.7c-.21,0-.41-.03-.6-.09-.19-.06-.34-.14-.46-.23l.17-.39c.11.08.24.15.4.21.16.06.32.08.49.08.14,0,.25-.02.34-.05.09-.03.15-.07.19-.12.04-.05.06-.11.06-.18,0-.08-.03-.15-.09-.2-.06-.05-.14-.09-.23-.12-.09-.03-.2-.06-.31-.08-.11-.02-.23-.05-.34-.09-.11-.04-.22-.08-.31-.14s-.17-.13-.23-.22c-.06-.09-.09-.21-.09-.35s.04-.28.12-.4.2-.22.36-.29.36-.11.61-.11c.16,0,.32.02.48.06.16.04.3.1.42.18l-.16.39c-.12-.07-.24-.12-.37-.16-.13-.03-.25-.05-.37-.05-.14,0-.25.02-.33.05-.09.03-.15.08-.19.13s-.06.12-.06.18c0,.08.03.15.09.2.06.05.13.09.23.12s.2.06.31.08c.12.03.23.06.34.09.11.03.22.08.31.13.09.06.17.13.23.22.06.09.09.21.09.35s-.04.28-.12.4c-.08.12-.2.22-.36.29-.16.07-.37.11-.61.11Z"/>
    <path class="cls-1" d="M94.4,103.66v-2.69h.41l1.18,1.96h-.22l1.16-1.96h.41v2.69s-.47,0-.47,0v-1.95h.1l-.98,1.65h-.23l-1-1.65h.12v1.95h-.48Z"/>
    <path class="cls-1" d="M99.33,103.7c-.21,0-.4-.03-.58-.1-.18-.07-.33-.17-.46-.29s-.23-.27-.3-.44c-.07-.17-.11-.35-.11-.55s.04-.38.11-.55c.07-.17.17-.31.3-.44s.28-.22.46-.29c.18-.07.37-.1.58-.1s.4.03.58.1c.18.07.33.16.46.29.13.12.23.27.3.44.07.17.11.35.11.55s-.04.38-.11.55c-.07.17-.17.31-.3.44-.13.13-.28.22-.46.29-.18.07-.37.1-.58.1ZM99.33,103.26c.14,0,.26-.02.37-.07.11-.05.21-.11.3-.2.08-.08.15-.18.2-.3.05-.12.07-.24.07-.38s-.02-.27-.07-.38c-.05-.12-.11-.22-.2-.3s-.19-.15-.3-.2c-.11-.05-.24-.07-.37-.07s-.26.02-.38.07c-.12.05-.22.11-.3.2-.08.09-.15.19-.2.3-.05.11-.07.24-.07.38s.02.26.07.38c.05.12.12.22.2.3.08.09.19.15.3.2.12.05.24.07.38.07Z"/>
    <path class="cls-1" d="M103.03,103.66v-1.06l.12.3-1.17-1.93h.53l.95,1.56h-.3l.94-1.56h.49l-1.17,1.93.11-.3v1.06h-.5Z"/>
    <path class="cls-1" d="M107.22,103.7c-.21,0-.4-.03-.57-.1-.17-.07-.33-.16-.46-.29-.13-.13-.23-.27-.3-.44-.07-.17-.11-.35-.11-.55s.04-.39.11-.55c.07-.17.17-.31.3-.44s.28-.22.46-.29c.17-.07.37-.1.57-.1.22,0,.42.04.6.11.18.08.34.19.46.34l-.32.3c-.1-.11-.21-.18-.33-.24-.12-.05-.25-.08-.39-.08s-.27.02-.39.07c-.12.05-.22.11-.3.2-.09.08-.15.18-.2.3s-.07.24-.07.38.02.27.07.38.12.22.2.3c.09.08.19.15.3.2.12.05.25.07.39.07s.27-.03.39-.08c.12-.05.23-.13.33-.24l.32.3c-.13.15-.28.26-.46.34-.18.08-.38.12-.61.12Z"/>
    <path class="cls-1" d="M108.29,103.66l1.21-2.69h.49l1.21,2.69h-.53l-1.04-2.43h.2l-1.04,2.43h-.51ZM108.85,103.04l.14-.39h1.45l.13.39h-1.72Z"/>
    <path class="cls-1" d="M111.55,103.66v-2.69h1.11c.24,0,.44.04.61.11.17.08.3.19.39.33.09.14.14.32.14.51s-.05.37-.14.51-.22.25-.39.33c-.17.08-.37.12-.61.12h-.83l.22-.23v1.01h-.5ZM112.05,102.71l-.22-.25h.8c.22,0,.39-.05.5-.14.11-.09.17-.22.17-.39s-.06-.3-.17-.39c-.11-.09-.28-.14-.5-.14h-.8l.22-.25v1.56Z"/>
    <path class="cls-1" d="M113.79,103.66l1.21-2.69h.49l1.21,2.69h-.53l-1.04-2.43h.2l-1.04,2.43h-.51ZM114.35,103.04l.14-.39h1.45l.13.39h-1.72Z"/>
    <path class="cls-1" d="M118.26,103.7c-.21,0-.4-.03-.57-.1-.17-.07-.33-.16-.46-.29-.13-.13-.23-.27-.3-.44-.07-.17-.11-.35-.11-.55s.04-.39.11-.55c.07-.17.17-.31.3-.44s.28-.22.46-.29c.17-.07.37-.1.57-.1.22,0,.42.04.6.11.18.08.34.19.46.34l-.32.3c-.1-.11-.21-.18-.33-.24-.12-.05-.25-.08-.39-.08s-.27.02-.39.07c-.12.05-.22.11-.3.2-.09.08-.15.18-.2.3-.05.12-.07.24-.07.38s.02.27.07.38c.05.12.12.22.2.3.09.08.19.15.3.2.12.05.25.07.39.07s.27-.03.39-.08c.12-.05.23-.13.33-.24l.32.3c-.13.15-.28.26-.46.34-.18.08-.38.12-.61.12Z"/>
    <path class="cls-1" d="M119.77,103.66v-2.69h.5v2.69h-.5Z"/>
    <path class="cls-1" d="M121.54,103.66v-2.27h-.89v-.42h2.28v.42h-.89v2.27h-.5Z"/>
    <path class="cls-1" d="M122.79,103.66l1.21-2.69h.49l1.21,2.69h-.53l-1.04-2.43h.2l-1.04,2.43h-.51ZM123.35,103.04l.14-.39h1.45l.13.39h-1.72Z"/>
    <path class="cls-1" d="M127.26,103.7c-.21,0-.4-.03-.57-.1-.17-.07-.33-.16-.46-.29-.13-.13-.23-.27-.3-.44-.07-.17-.11-.35-.11-.55s.04-.39.11-.55c.07-.17.17-.31.3-.44s.28-.22.46-.29c.17-.07.37-.1.57-.1.22,0,.42.04.6.11.18.08.34.19.46.34l-.32.3c-.1-.11-.21-.18-.33-.24-.12-.05-.25-.08-.39-.08s-.27.02-.39.07c-.12.05-.22.11-.3.2-.09.08-.15.18-.2.3s-.07.24-.07.38.02.27.07.38.12.22.2.3c.09.08.19.15.3.2.12.05.25.07.39.07s.27-.03.39-.08c.12-.05.23-.13.33-.24l.32.3c-.13.15-.28.26-.46.34-.18.08-.38.12-.61.12Z"/>
    <path class="cls-1" d="M128.78,103.66v-2.69h.5v2.69h-.5Z"/>
    <path class="cls-1" d="M131.26,103.7c-.21,0-.4-.03-.58-.1-.18-.07-.33-.17-.46-.29s-.23-.27-.3-.44-.11-.35-.11-.55.04-.38.11-.55.17-.31.3-.44.28-.22.46-.29c.18-.07.37-.1.58-.1s.4.03.58.1c.18.07.33.16.46.29.13.12.23.27.3.44.07.17.11.35.11.55s-.04.38-.11.55c-.07.17-.17.31-.3.44-.13.13-.28.22-.46.29-.18.07-.37.1-.58.1ZM131.26,103.26c.14,0,.26-.02.37-.07.11-.05.21-.11.3-.2.08-.08.15-.18.2-.3s.07-.24.07-.38-.02-.27-.07-.38-.11-.22-.2-.3c-.09-.08-.19-.15-.3-.2-.11-.05-.24-.07-.37-.07s-.26.02-.38.07c-.12.05-.22.11-.3.2-.08.09-.15.19-.2.3-.05.11-.07.24-.07.38s.02.26.07.38c.05.12.12.22.2.3.08.09.19.15.3.2.12.05.24.07.38.07ZM130.94,100.75l.52-.53h.57l-.67.53h-.42Z"/>
    <path class="cls-1" d="M133.24,103.66v-2.69h.41l1.69,2.08h-.2v-2.08h.49v2.69h-.41l-1.68-2.08h.2v2.08h-.5Z"/>
  </g>
</svg>