<svg width="91" height="81" viewBox="0 0 91 81" fill="none" xmlns="http://www.w3.org/2000/svg">
<path d="M35.945 39.2961H41.7747C42.1216 39.5324 41.8031 40.2299 41.6723 40.5843C39.6532 46.153 31.7192 46.9743 28.5797 41.923C26.8905 39.2118 27.6185 36.0899 27.5901 33.0411C27.7891 32.5968 28.6764 32.5124 29.1257 32.4786C31.2357 32.3155 33.6131 32.5686 35.7402 32.5349L35.945 32.6924V39.2961Z" fill="#EEEEEE"/>
<path d="M42.1273 26.6513V32.4901C37.1052 31.8882 34.6312 26.0157 37.1393 21.7857C39.329 18.0957 43.862 17.7357 47.8205 18.1744C48.3153 18.2307 49.0148 18.4951 49.0148 19.0801V26.4432L48.8044 26.6513H42.1273Z" fill="#EEEEEE"/>
<path d="M55.0549 39.4369V32.7657H49.2253C48.7759 32.7657 49.3902 31.2132 49.5039 30.9601C51.6481 26.3026 58.1262 25.3744 61.5899 29.1488C64.1948 31.9838 63.4497 35.4713 63.4099 39.0151C63.2165 39.4482 62.443 39.5438 62.0108 39.5776C59.8268 39.7632 57.2446 39.5269 55.0493 39.4313L55.0549 39.4369Z" fill="#EEEEEE"/>
<path d="M41.9907 45.5511H48.6678L48.8783 45.343V39.5774C50.7097 39.763 52.5638 41.0005 53.5762 42.508C56.7953 47.3118 53.5989 53.4993 47.8318 53.8986C46.6147 53.983 44.2145 54.0336 43.0429 53.8986C42.7585 53.8649 41.9907 53.5049 41.9907 53.2686V45.5568V45.5511Z" fill="#EEEEEE"/>
</svg>
