<?xml version="1.0" encoding="UTF-8"?>
<svg id="Capa_1" data-name="Capa 1" xmlns="http://www.w3.org/2000/svg" viewBox="0 0 160 160">
  <defs>
    <style>
      .cls-1 {
        fill: #f6f6f6;
      }
    </style>
  </defs>
  <polygon class="cls-1" points="113.57 65.4 113.57 71.61 100.32 71.61 100.32 77.01 111.77 77.01 111.77 82.57 100.57 82.57 100.32 82.82 100.32 88.37 100.57 88.62 114.06 88.62 114.06 94.43 113.81 94.67 93.7 94.67 93.45 94.43 93.45 65.64 93.7 65.4 113.57 65.4"/>
  <path class="cls-1" d="M88.69,68.36c.09.26,0,.51-.11.75-.43,1-1.4,2.77-1.97,3.76-.12.22-.66,1.16-.78,1.19-2.64-1.55-5.63-2.97-8.8-2.59-1.13.14-2.33.76-2.4,2.02-.1,1.82,1.6,2.25,2.99,2.75,4.67,1.65,11.5,2.24,12.06,8.54,1.1,12.27-14.36,11.38-21.92,7.36-.41-.22-1.53-.74-1.4-1.23l2.82-5.57c1.53.68,2.9,1.63,4.48,2.22,1.99.74,6.72,1.95,8.26.09,1.71-2.07-1.56-3.31-3.04-3.84-3.97-1.42-10.16-2.15-11.2-7.11-1.1-5.23,1.76-9.48,6.76-10.92s9.84.16,14.24,2.59Z"/>
  <path class="cls-1" d="M142.33,87.82c-.43,2.48-3.34,4.64-5.54,5.62-14.2,6.36-26.79-9.85-18.38-22.14,5.44-7.96,18.85-8.45,23.59.37l-5.13,3.67c-1.06-1.62-2.12-3.01-4.08-3.57-7.8-2.26-12.16,6.15-9.11,12.55,2.68,5.63,10.34,5.94,13.21.38l5.45,3.12Z"/>
  <path class="cls-1" d="M27.55,83.88h6.79c.41.28.03,1.1-.12,1.52-2.35,6.55-11.59,7.52-15.24,1.58-1.96-3.19-1.12-6.86-1.15-10.45.23-.52,1.26-.62,1.79-.66,2.46-.19,5.22.11,7.7.07l.24.18v7.77Z"/>
  <path class="cls-1" d="M34.75,69v6.87c-5.84-.71-8.73-7.62-5.81-12.59,2.55-4.34,7.82-4.77,12.43-4.25.58.06,1.39.38,1.39,1.06v8.67l-.25.25h-7.77Z"/>
  <path class="cls-1" d="M49.79,84.04v-7.85h-6.79c-.52,0,.19-1.83.33-2.13,2.5-5.48,10.03-6.57,14.07-2.13,3.03,3.34,2.16,7.44,2.12,11.61-.23.51-1.13.62-1.63.66-2.54.22-5.54-.06-8.1-.17Z"/>
  <path class="cls-1" d="M34.58,91.24h7.77l.25-.25v-6.79c2.13.22,4.29,1.67,5.46,3.45,3.75,5.65.03,12.94-6.68,13.4-1.41.1-4.21.16-5.57,0-.33-.04-1.22-.47-1.22-.74v-9.08Z"/>
</svg>