<?xml version="1.0" encoding="UTF-8"?>
<svg id="Capa_1" data-name="Capa 1" xmlns="http://www.w3.org/2000/svg" viewBox="0 0 160 160">
  <defs>
    <style>
      .cls-1 {
        fill: #f6f6f6;
      }
    </style>
  </defs>
  <polygon class="cls-1" points="113.78 65.11 113.78 71.32 100.54 71.32 100.54 76.72 111.99 76.72 111.99 82.28 100.78 82.28 100.54 82.53 100.54 88.09 100.78 88.33 114.28 88.33 114.28 94.14 114.03 94.38 93.92 94.38 93.67 94.14 93.67 65.36 93.92 65.11 113.78 65.11"/>
  <path class="cls-1" d="M88.91,68.07c.09.26,0,.51-.11.75-.43,1-1.4,2.77-1.97,3.76-.12.22-.66,1.16-.78,1.19-2.64-1.55-5.63-2.97-8.8-2.59-1.13.14-2.33.76-2.4,2.02-.1,1.82,1.6,2.25,2.99,2.75,4.67,1.65,11.5,2.24,12.06,8.54,1.1,12.27-14.36,11.38-21.92,7.36-.41-.22-1.53-.74-1.4-1.23l2.82-5.57c1.53.68,2.9,1.63,4.48,2.22,1.99.74,6.72,1.95,8.26.09,1.71-2.07-1.56-3.31-3.04-3.84-3.97-1.42-10.16-2.15-11.2-7.11-1.1-5.23,1.76-9.48,6.76-10.92s9.84.16,14.24,2.59Z"/>
  <path class="cls-1" d="M142.55,87.53c-.43,2.48-3.34,4.64-5.54,5.62-14.2,6.36-26.79-9.85-18.38-22.14,5.44-7.96,18.85-8.45,23.59.37l-5.13,3.67c-1.06-1.62-2.12-3.01-4.08-3.57-7.8-2.26-12.16,6.15-9.11,12.55,2.68,5.63,10.34,5.94,13.21.38l5.45,3.12Z"/>
  <path class="cls-1" d="M27.77,83.59h6.79c.41.28.03,1.1-.12,1.52-2.35,6.55-11.59,7.52-15.24,1.58-1.96-3.19-1.12-6.86-1.15-10.45.23-.52,1.26-.62,1.79-.66,2.46-.19,5.22.11,7.7.07l.24.18v7.77Z"/>
  <path class="cls-1" d="M34.96,68.71v6.87c-5.84-.71-8.73-7.62-5.81-12.59,2.55-4.34,7.82-4.77,12.43-4.25.58.06,1.39.38,1.39,1.06v8.67l-.25.25h-7.77Z"/>
  <path class="cls-1" d="M50.01,83.75v-7.85h-6.79c-.52,0,.19-1.83.33-2.13,2.5-5.48,10.03-6.57,14.07-2.13,3.03,3.34,2.16,7.44,2.12,11.61-.23.51-1.13.62-1.63.66-2.54.22-5.54-.06-8.1-.17Z"/>
  <path class="cls-1" d="M34.8,90.95h7.77l.25-.25v-6.79c2.13.22,4.29,1.67,5.46,3.45,3.75,5.65.03,12.94-6.68,13.4-1.41.1-4.21.16-5.57,0-.33-.04-1.22-.47-1.22-.74v-9.08Z"/>
  <g>
    <path class="cls-1" d="M68.03,101.51c-.25,0-.5-.04-.73-.11-.23-.07-.42-.17-.56-.28l.21-.47c.13.1.29.19.48.26.19.07.39.1.59.1.17,0,.31-.02.41-.06.11-.04.18-.09.23-.15.05-.06.07-.14.07-.22,0-.1-.04-.18-.11-.24-.07-.06-.16-.11-.28-.14-.11-.04-.24-.07-.38-.1-.14-.03-.28-.07-.41-.11-.14-.04-.26-.1-.38-.17-.11-.07-.21-.16-.28-.27s-.1-.25-.1-.43.05-.34.14-.49.24-.27.43-.35.44-.13.74-.13c.2,0,.39.02.58.07.19.05.36.12.5.21l-.19.47c-.15-.09-.3-.15-.45-.19-.16-.04-.3-.06-.45-.06-.16,0-.3.02-.4.06-.11.04-.18.09-.23.16-.05.07-.07.14-.07.22,0,.1.03.18.1.24.07.06.16.11.27.14s.24.07.38.1c.14.03.28.07.41.11s.26.1.38.16c.11.07.21.16.28.27.07.11.1.25.1.42s-.05.33-.14.48c-.09.15-.24.27-.44.35-.2.09-.44.13-.74.13Z"/>
    <path class="cls-1" d="M71.47,101.51c-.25,0-.48-.04-.7-.13-.22-.08-.4-.2-.56-.35s-.28-.33-.37-.53c-.09-.2-.13-.42-.13-.66s.04-.46.13-.67c.09-.2.21-.38.37-.53s.34-.27.56-.35c.21-.08.45-.13.7-.13s.48.04.7.12c.21.08.4.2.56.35.16.15.28.33.37.53.09.2.13.43.13.67s-.04.46-.13.67c-.09.2-.21.38-.37.53-.16.15-.34.27-.56.35-.21.08-.45.12-.7.12ZM71.47,100.98c.16,0,.32-.03.45-.08.14-.06.26-.14.36-.24.1-.1.18-.22.24-.36.06-.14.09-.29.09-.46s-.03-.32-.08-.46c-.06-.14-.14-.26-.24-.36s-.22-.18-.36-.24c-.14-.06-.29-.08-.45-.08s-.32.03-.46.08c-.14.06-.26.14-.37.24-.1.1-.18.22-.24.36-.06.14-.09.29-.09.46s.03.32.09.46c.06.14.14.26.24.37.1.1.22.18.37.24.14.06.29.08.46.08Z"/>
    <path class="cls-1" d="M75.37,101.51c-.25,0-.48-.04-.69-.12-.21-.08-.39-.2-.55-.35-.16-.15-.28-.33-.37-.53-.09-.2-.13-.43-.13-.67s.04-.47.13-.67c.09-.2.21-.38.37-.53s.34-.27.55-.35c.21-.08.44-.12.69-.12.27,0,.51.05.73.14.22.09.41.23.56.41l-.39.37c-.12-.13-.25-.22-.4-.29s-.3-.1-.47-.1-.33.03-.47.08c-.14.06-.26.14-.37.24s-.19.22-.24.36-.09.29-.09.46.03.32.09.46.14.26.24.36.23.18.37.24c.14.06.3.08.47.08s.32-.03.47-.1.28-.16.4-.29l.39.37c-.15.18-.34.32-.56.41-.22.09-.47.14-.74.14Z"/>
    <path class="cls-1" d="M78.57,101.51c-.25,0-.48-.04-.7-.13-.22-.08-.4-.2-.56-.35s-.28-.33-.37-.53-.13-.42-.13-.66.04-.46.13-.67.21-.38.37-.53.34-.27.56-.35c.21-.08.45-.13.7-.13s.48.04.7.12c.21.08.4.2.56.35.16.15.28.33.37.53.09.2.13.43.13.67s-.04.46-.13.67c-.09.2-.21.38-.37.53-.16.15-.34.27-.56.35-.21.08-.45.12-.7.12ZM78.57,100.98c.16,0,.32-.03.45-.08.14-.06.26-.14.36-.24.1-.1.18-.22.24-.36s.09-.29.09-.46-.03-.32-.08-.46-.14-.26-.24-.36c-.1-.1-.23-.18-.36-.24-.14-.06-.29-.08-.45-.08s-.32.03-.46.08c-.14.06-.26.14-.37.24-.1.1-.18.22-.24.36-.06.14-.09.29-.09.46s.03.32.09.46c.06.14.14.26.24.37.1.1.22.18.37.24.14.06.29.08.46.08Z"/>
    <path class="cls-1" d="M80.97,101.46v-3.26h1.34c.43,0,.78.1,1.02.31.25.21.37.49.37.85,0,.24-.06.44-.17.61-.11.17-.27.3-.48.4-.21.09-.45.14-.74.14h-1l.27-.27v1.22h-.61ZM81.57,100.31l-.27-.29h.97c.27,0,.47-.06.6-.17.13-.11.2-.27.2-.48s-.07-.36-.2-.48c-.13-.11-.34-.17-.6-.17h-.97l.27-.3v1.89ZM83.1,101.46l-.82-1.18h.65l.83,1.18h-.65Z"/>
    <path class="cls-1" d="M84.37,101.46v-3.26h1.34c.43,0,.77.1,1.02.31.25.21.37.49.37.85,0,.24-.06.44-.17.61-.11.17-.27.3-.48.4-.21.09-.45.14-.74.14h-1l.27-.27v1.22h-.6ZM84.97,100.31l-.27-.29h.97c.27,0,.47-.06.6-.17.14-.11.2-.27.2-.48s-.07-.36-.2-.48c-.13-.11-.34-.17-.6-.17h-.97l.27-.3v1.89ZM86.5,101.46l-.82-1.18h.65l.83,1.18h-.65Z"/>
    <path class="cls-1" d="M87.77,101.46v-3.26h.61v3.26h-.61Z"/>
    <path class="cls-1" d="M90.27,101.51c-.25,0-.5-.04-.73-.11-.23-.07-.42-.17-.56-.28l.21-.47c.13.1.29.19.48.26.19.07.39.1.59.1.17,0,.31-.02.41-.06.11-.04.18-.09.23-.15.05-.06.07-.14.07-.22,0-.1-.04-.18-.11-.24-.07-.06-.16-.11-.28-.14-.11-.04-.24-.07-.38-.1-.14-.03-.28-.07-.41-.11-.14-.04-.26-.1-.38-.17s-.21-.16-.28-.27c-.07-.11-.1-.25-.1-.43s.05-.34.14-.49.24-.27.43-.35.44-.13.74-.13c.2,0,.39.02.58.07.19.05.36.12.5.21l-.19.47c-.15-.09-.3-.15-.45-.19-.16-.04-.3-.06-.45-.06-.16,0-.3.02-.41.06-.11.04-.18.09-.23.16s-.07.14-.07.22c0,.1.03.18.1.24.07.06.16.11.27.14s.24.07.38.1c.14.03.28.07.41.11.14.04.26.1.38.16.11.07.21.16.28.27.07.11.1.25.1.42s-.05.33-.14.48c-.09.15-.24.27-.44.35-.2.09-.44.13-.74.13Z"/>
    <path class="cls-1" d="M92.18,101.46v-3.26h.5l1.42,2.38h-.26l1.4-2.38h.5v3.26s-.57,0-.57,0v-2.36h.12l-1.18,1.99h-.27l-1.21-1.99h.14v2.36h-.58Z"/>
    <path class="cls-1" d="M98.16,101.51c-.25,0-.48-.04-.7-.13-.22-.08-.4-.2-.56-.35s-.28-.33-.37-.53c-.09-.2-.13-.42-.13-.66s.04-.46.13-.67c.09-.2.21-.38.37-.53s.34-.27.56-.35c.21-.08.45-.13.7-.13s.48.04.7.12c.21.08.4.2.56.35.16.15.28.33.37.53.09.2.13.43.13.67s-.04.46-.13.67c-.09.2-.21.38-.37.53-.16.15-.34.27-.56.35-.21.08-.45.12-.7.12ZM98.16,100.98c.16,0,.32-.03.45-.08.14-.06.26-.14.36-.24.1-.1.18-.22.24-.36.06-.14.09-.29.09-.46s-.03-.32-.08-.46c-.06-.14-.14-.26-.24-.36s-.22-.18-.36-.24c-.14-.06-.29-.08-.45-.08s-.32.03-.46.08c-.14.06-.26.14-.37.24-.1.1-.18.22-.24.36-.06.14-.09.29-.09.46s.03.32.09.46c.06.14.14.26.24.37.1.1.22.18.37.24.14.06.29.08.46.08Z"/>
    <path class="cls-1" d="M102.63,101.46v-1.29l.14.37-1.42-2.34h.64l1.14,1.89h-.36l1.14-1.89h.6l-1.41,2.34.13-.37v1.29h-.6Z"/>
    <path class="cls-1" d="M107.7,101.51c-.25,0-.48-.04-.69-.12-.21-.08-.39-.2-.55-.35-.16-.15-.28-.33-.37-.53-.09-.2-.13-.43-.13-.67s.04-.47.13-.67c.09-.2.21-.38.37-.53s.34-.27.55-.35c.21-.08.44-.12.69-.12.27,0,.51.05.73.14.22.09.41.23.56.41l-.39.37c-.12-.13-.25-.22-.4-.29-.15-.06-.3-.1-.47-.1s-.33.03-.47.08c-.14.06-.26.14-.37.24-.1.1-.19.22-.24.36s-.09.29-.09.46.03.32.09.46.14.26.24.36c.1.1.23.18.37.24.14.06.3.08.47.08s.32-.03.47-.1c.15-.06.28-.16.4-.29l.39.37c-.15.18-.34.32-.56.41-.22.09-.47.14-.74.14Z"/>
    <path class="cls-1" d="M109,101.46l1.47-3.26h.6l1.47,3.26h-.64l-1.26-2.94h.24l-1.26,2.94h-.62ZM109.68,100.71l.17-.47h1.75l.16.47h-2.09Z"/>
    <path class="cls-1" d="M112.95,101.46v-3.26h1.34c.29,0,.54.05.74.14.21.09.37.22.48.4.11.17.17.38.17.62s-.06.44-.17.62-.27.31-.48.4c-.21.09-.45.14-.74.14h-1l.27-.28v1.22h-.6ZM113.56,100.31l-.27-.3h.97c.27,0,.47-.06.6-.17.14-.11.2-.27.2-.48s-.07-.36-.2-.48c-.14-.11-.34-.17-.6-.17h-.97l.27-.3v1.89Z"/>
    <path class="cls-1" d="M115.66,101.46l1.47-3.26h.6l1.47,3.26h-.64l-1.26-2.94h.24l-1.26,2.94h-.62ZM116.34,100.71l.17-.47h1.75l.16.47h-2.09Z"/>
    <path class="cls-1" d="M121.07,101.51c-.25,0-.48-.04-.69-.12-.21-.08-.39-.2-.55-.35-.16-.15-.28-.33-.37-.53-.09-.2-.13-.43-.13-.67s.04-.47.13-.67c.09-.2.21-.38.37-.53s.34-.27.55-.35c.21-.08.44-.12.69-.12.27,0,.51.05.73.14.22.09.41.23.56.41l-.39.37c-.12-.13-.25-.22-.4-.29-.15-.06-.3-.1-.47-.1s-.33.03-.47.08c-.14.06-.26.14-.37.24-.1.1-.19.22-.24.36-.06.14-.09.29-.09.46s.03.32.09.46c.06.14.14.26.24.36.1.1.23.18.37.24.14.06.3.08.47.08s.32-.03.47-.1c.15-.06.28-.16.4-.29l.39.37c-.15.18-.34.32-.56.41-.22.09-.47.14-.74.14Z"/>
    <path class="cls-1" d="M122.9,101.46v-3.26h.61v3.26h-.61Z"/>
    <path class="cls-1" d="M125.05,101.46v-2.75h-1.08v-.51h2.76v.51h-1.08v2.75h-.61Z"/>
    <path class="cls-1" d="M126.57,101.46l1.47-3.26h.6l1.47,3.26h-.64l-1.26-2.94h.24l-1.26,2.94h-.62ZM127.24,100.71l.17-.47h1.75l.16.47h-2.09Z"/>
    <path class="cls-1" d="M131.97,101.51c-.25,0-.48-.04-.69-.12-.21-.08-.39-.2-.55-.35-.16-.15-.28-.33-.37-.53-.09-.2-.13-.43-.13-.67s.04-.47.13-.67c.09-.2.21-.38.37-.53s.34-.27.55-.35c.21-.08.44-.12.69-.12.27,0,.51.05.73.14.22.09.41.23.56.41l-.39.37c-.12-.13-.25-.22-.4-.29-.15-.06-.3-.1-.47-.1s-.33.03-.47.08c-.14.06-.26.14-.37.24-.1.1-.19.22-.24.36s-.09.29-.09.46.03.32.09.46.14.26.24.36c.1.1.23.18.37.24.14.06.3.08.47.08s.32-.03.47-.1c.15-.06.28-.16.4-.29l.39.37c-.15.18-.34.32-.56.41-.22.09-.47.14-.74.14Z"/>
    <path class="cls-1" d="M133.81,101.46v-3.26h.61v3.26h-.61Z"/>
    <path class="cls-1" d="M136.82,101.51c-.25,0-.48-.04-.7-.13-.22-.08-.4-.2-.56-.35s-.28-.33-.37-.53-.13-.42-.13-.66.04-.46.13-.67.21-.38.37-.53.34-.27.56-.35c.21-.08.45-.13.7-.13s.48.04.7.12c.21.08.4.2.56.35.16.15.28.33.37.53.09.2.13.43.13.67s-.04.46-.13.67c-.09.2-.21.38-.37.53-.16.15-.34.27-.56.35-.21.08-.45.12-.7.12ZM136.82,100.98c.16,0,.32-.03.45-.08.14-.06.26-.14.36-.24.1-.1.18-.22.24-.36s.09-.29.09-.46-.03-.32-.08-.46-.14-.26-.24-.36c-.1-.1-.23-.18-.36-.24-.14-.06-.29-.08-.45-.08s-.32.03-.46.08c-.14.06-.26.14-.37.24-.1.1-.18.22-.24.36-.06.14-.09.29-.09.46s.03.32.09.46c.06.14.14.26.24.37.1.1.22.18.37.24.14.06.29.08.46.08ZM136.43,97.94l.63-.64h.69l-.81.64h-.5Z"/>
    <path class="cls-1" d="M139.21,101.46v-3.26h.5l2.04,2.51h-.25v-2.51h.6v3.26h-.5l-2.04-2.51h.25v2.51h-.6Z"/>
  </g>
</svg>