<?xml version="1.0" encoding="UTF-8"?>
<svg id="Capa_1" xmlns="http://www.w3.org/2000/svg" version="1.1" viewBox="0 0 160 160">
  <!-- Generator: Adobe Illustrator 30.0.0, SVG Export Plug-In . SVG Version: 2.1.1 Build 123)  -->
  <defs>
    <style>
      .st0 {
        fill: #1c6758;
      }

      .st1 {
        fill: #fff;
      }
    </style>
  </defs>
  <path class="st0" d="M127.6,35.1H42.8c-8.2-.4-8.9-11.4-.9-12.9h91.4c8.1-1.7,7-12.7-1.2-12.9H41.6c-9.6.6-17.3,8.1-18.3,17.6.2,32.2-.5,64.6.4,96.8,2.3,14,13.7,24.9,27.7,26.7,22.3-.5,46.1,1.7,68.3.3,10.3-.6,18-7.6,19.1-17.9V47c-.5-6.2-5.2-11.1-11.3-11.9h0ZM89.5,73.7l-.4.4h-12.5v11c-9.4-1.1-14-12.2-9.3-20.2,4.1-7,12.6-7.6,19.9-6.8.9.1,2.2.6,2.2,1.7v13.9ZM98,104c6,9.1,0,20.8-10.7,21.5-2.3.2-6.7.3-8.9,0-.5,0-2-.7-2-1.2v-14.6h12.5l.4-.4v-10.9c3.4.3,6.9,2.7,8.8,5.5ZM64.7,85.2l.4.3v12.5h10.9c.6.4,0,1.8-.2,2.4-3.8,10.5-18.6,12.1-24.5,2.5-3.2-5.1-1.8-11-1.8-16.8.4-.8,2-1,2.9-1.1,3.9-.3,8.4.2,12.4.1h0ZM116.4,97.4c-.4.8-1.8,1-2.6,1.1-4.1.3-8.9-.1-13-.3h0v-12.6h-10.9c-.8,0,.3-2.9.5-3.4,4-8.8,16.1-10.5,22.6-3.4,4.9,5.4,3.5,11.9,3.4,18.6h0Z"/>
  <polygon class="st1" points="100.8 98.2 100.8 98.2 100.8 98.2 100.8 98.2"/>
  <path class="st1" d="M90.4,82.2c-.2.5-1.4,3.4-.5,3.4h10.9v12.6c4.1.2,8.9.6,13,.3.8,0,2.2-.2,2.6-1.1,0-6.7,1.5-13.3-3.4-18.6-6.5-7.1-18.6-5.4-22.6,3.4h0Z"/>
  <path class="st1" d="M87.3,58.1c-7.4-.8-15.9-.1-19.9,6.8-4.7,8,0,19.1,9.3,20.2v-11h12.5l.4-.4v-13.9c0-1.1-1.3-1.6-2.2-1.7Z"/>
  <path class="st1" d="M49.5,86.1c0,5.8-1.3,11.7,1.8,16.8,5.9,9.5,20.7,8,24.5-2.5.2-.7.8-2,.2-2.4h-10.9v-12.5l-.4-.3c-4,0-8.4-.4-12.4-.1-.8,0-2.5.2-2.9,1.1h0Z"/>
  <path class="st1" d="M89.3,98.5v10.9l-.4.4h-12.5v14.6c0,.4,1.4,1.1,2,1.2,2.2.3,6.7.2,8.9,0,10.8-.7,16.7-12.4,10.7-21.5-1.9-2.8-5.4-5.2-8.8-5.5Z"/>
</svg>